<?xml version="1.0" encoding="UTF-8"?>
<!DOCTYPE svg PUBLIC "-//W3C//DTD SVG 1.1//EN" "http://www.w3.org/Graphics/SVG/1.1/DTD/svg11.dtd">
<!-- Creator: CorelDRAW 2020 (64-Bit) -->
<svg xmlns="http://www.w3.org/2000/svg" xml:space="preserve" width="17.5684mm" height="17.5684mm" version="1.1" style="shape-rendering:geometricPrecision; text-rendering:geometricPrecision; image-rendering:optimizeQuality; fill-rule:evenodd; clip-rule:evenodd"
viewBox="0 0 17.75 17.75"
 xmlns:xlink="http://www.w3.org/1999/xlink"
 xmlns:xodm="http://www.corel.com/coreldraw/odm/2003">
 <defs>
  <style type="text/css">
   <![CDATA[
    .str0 {stroke:#99CC33;stroke-width:0.11;stroke-miterlimit:22.9256}
    .fil0 {fill:#99CC33;fill-rule:nonzero}
   ]]>
  </style>
 </defs>
 <g id="Layer_x0020_1">
  <metadata id="CorelCorpID_0Corel-Layer"/>
  <g id="_2688896218272">
   <path class="fil0 str0" d="M8.87 0.05c2.44,0 4.64,0.99 6.24,2.58 1.6,1.6 2.58,3.8 2.58,6.24 0,2.44 -0.99,4.64 -2.58,6.24 -1.6,1.6 -3.8,2.58 -6.24,2.58 -2.44,0 -4.64,-0.99 -6.24,-2.58 -1.6,-1.6 -2.58,-3.8 -2.58,-6.24 0,-2.44 0.99,-4.64 2.58,-6.24 1.6,-1.6 3.8,-2.58 6.24,-2.58zm5.48 3.34c-1.4,-1.4 -3.34,-2.27 -5.48,-2.27 -2.14,0 -4.08,0.87 -5.48,2.27 -1.4,1.4 -2.27,3.34 -2.27,5.48 0,2.14 0.87,4.08 2.27,5.48 1.4,1.4 3.34,2.27 5.48,2.27 2.14,0 4.08,-0.87 5.48,-2.27 1.4,-1.4 2.27,-3.34 2.27,-5.48 0,-2.14 -0.87,-4.08 -2.27,-5.48z"/>
   <path class="fil0 str0" d="M4.02 8.82c0,0 2.46,1.5 3.62,4.34 0,0 2.41,-5.07 6.08,-8.52 0,0 -1.91,-0.96 -6.09,5.72 0,0 -1.88,-2.37 -3.61,-1.54z"/>
  </g>
 </g>
</svg>
